Coordinates
version=1
nRows=16
nColumns=63
inDegrees=yes

Units are S.I. units (second, meters, Newtons, ...)
If the header above contains a line with 'inDegrees', this indicates whether rotational values are in degrees (yes) or radians (no).

endheader
time	pelvis_tilt	pelvis_list	pelvis_rotation	pelvis_tx	pelvis_ty	pelvis_tz	hip_flexion_r	hip_adduction_r	hip_rotation_r	knee_angle_r	knee_angle_r_beta	ankle_angle_r	subtalar_angle_r	mtp_angle_r	hip_flexion_l	hip_adduction_l	hip_rotation_l	knee_angle_l	knee_angle_l_beta	ankle_angle_l	subtalar_angle_l	mtp_angle_l	L5_S1_Flex_Ext	L5_S1_Lat_Bending	L5_S1_axial_rotation	L4_L5_Flex_Ext	L4_L5_Lat_Bending	L4_L5_axial_rotation	L3_L4_Flex_Ext	L3_L4_Lat_Bending	L3_L4_axial_rotation	L2_L3_Flex_Ext	L2_L3_Lat_Bending	L2_L3_axial_rotation	L1_L2_Flex_Ext	L1_L2_Lat_Bending	L1_L2_axial_rotation	L1_T12_Flex_Ext	L1_T12_Lat_Bending	L1_T12_axial_rotation	Abs_r3	Abs_r2	Abs_r1	Abs_t1	Abs_t2	neck_flexion	neck_bending	neck_rotation	arm_flex_r	arm_add_r	arm_rot_r	elbow_flex_r	pro_sup_r	wrist_flex_r	wrist_dev_r	arm_flex_l	arm_add_l	arm_rot_l	elbow_flex_l	pro_sup_l	wrist_flex_l	wrist_dev_l
3.800000	1.739918	-6.786615	107.417780	0.259095	0.872577	0.787869	3.633368	3.684949	1.786508	19.272093	0.336361	30.996683	-15.076508	0.000000	4.329828	-2.038510	6.657626	17.093014	0.298329	37.104439	-4.810406	0.000000	-0.547967	0.225048	-0.377915	-1.017629	0.299313	-0.401535	-0.900255	0.547181	-0.401535	-0.626271	0.547181	-0.330675	-0.508842	0.458917	-0.307056	-0.313108	0.348599	-0.283436	-3.914073	2.545783	-2.101849	0.000000	0.000000	14.286229	-4.242690	-7.131798	-10.715139	-11.771674	2.569878	39.114958	86.815334	-8.465648	5.187056	-1.656883	-11.096738	115.358041	2.732557	62.533338	-12.351852	1.078986
3.816667	2.396348	-6.701850	106.625611	0.259187	0.873844	0.787357	3.523685	4.313084	2.422740	18.821137	0.328491	30.337381	-14.779994	0.000000	4.351230	-2.638920	6.481129	17.113666	0.298690	36.799083	-5.615573	0.000000	-0.532765	0.351621	-0.382933	-0.989398	0.467656	-0.406867	-0.875280	0.854932	-0.406867	-0.608897	0.854932	-0.335067	-0.494726	0.717026	-0.311133	-0.304422	0.544661	-0.287200	-3.805488	3.977610	-2.129760	0.000000	0.000000	14.275824	-4.627551	-4.865479	-10.674123	-12.480770	4.181660	36.467429	84.437724	-8.635503	4.897415	-1.156658	-10.693257	103.506808	4.948101	63.240460	-12.077263	-0.431929
3.833333	3.021208	-6.616321	105.842600	0.259229	0.875004	0.786890	3.389822	4.903560	3.022512	18.402168	0.321178	29.671248	-14.471216	0.000000	4.363973	-3.218389	6.253641	17.190674	0.300034	36.511954	-6.379309	0.000000	-0.520644	0.475828	-0.371321	-0.966888	0.632852	-0.394529	-0.855366	1.156929	-0.394529	-0.595044	1.156929	-0.324906	-0.483470	0.970309	-0.301699	-0.297496	0.737058	-0.278491	-3.718910	5.382666	-2.065177	0.000000	0.000000	14.181746	-4.999650	-2.703919	-10.741378	-13.130582	5.636483	33.909685	81.498092	-8.739232	4.834393	-0.846608	-10.381603	90.780629	7.886145	64.072120	-11.921024	-1.911535
3.850000	3.605678	-6.539926	105.074123	0.259253	0.875995	0.786558	3.257272	5.447143	3.579537	18.038116	0.314825	29.030192	-14.150169	0.000000	4.395212	-3.764498	5.995703	17.353107	0.302869	36.269834	-7.119525	0.000000	-0.512502	0.594943	-0.337060	-0.951768	0.791274	-0.358126	-0.841990	1.446543	-0.358126	-0.585739	1.446543	-0.294927	-0.475909	1.213207	-0.273861	-0.292844	0.921566	-0.252795	-3.660751	6.730109	-1.874624	0.000000	0.000000	14.039755	-5.372538	-0.752094	-10.930152	-13.727178	6.905792	31.527325	78.172879	-8.718152	4.897803	-0.690583	-10.151697	77.695272	11.462782	65.029754	-11.886735	-3.299541
3.866667	4.126268	-6.472151	104.332704	0.259303	0.876784	0.786397	3.131436	5.917450	4.062322	17.738419	0.309594	28.468975	-13.772745	0.000000	4.450984	-4.255716	5.706380	17.608476	0.307326	36.089250	-7.804622	0.000000	-0.509793	0.703737	-0.284899	-0.946736	0.935970	-0.302705	-0.837539	1.711067	-0.302705	-0.582642	1.711067	-0.249287	-0.473394	1.435061	-0.231480	-0.291296	1.090089	-0.213674	-3.641400	7.960816	-1.584522	0.000000	0.000000	13.854398	-5.756769	0.907229	-11.196837	-14.283334	8.129828	29.322475	74.743293	-8.561529	4.970653	-0.695097	-10.003977	64.719679	15.591522	66.062208	-11.956137	-4.483437
3.883333	4.576784	-6.428447	103.615024	0.259409	0.877298	0.786474	3.051330	6.306356	4.465745	17.534274	0.306031	28.021546	-13.344811	0.000000	4.570245	-4.683029	5.386761	17.990136	0.313987	35.992432	-8.432280	0.000000	-0.511329	0.799779	-0.216186	-0.949590	1.063706	-0.229698	-0.840063	1.944583	-0.229698	-0.584398	1.944583	-0.189163	-0.474821	1.630910	-0.175651	-0.292174	1.238858	-0.162139	-3.652375	9.047263	-1.202362	0.000000	0.000000	13.675679	-6.097213	2.290549	-11.539942	-14.844048	9.412413	27.337660	71.322602	-8.331077	4.907402	-0.861455	-9.918035	52.466764	20.161628	67.262895	-12.145404	-5.259904
3.900000	4.924649	-6.394022	102.939284	0.259587	0.877564	0.786776	2.987615	6.593684	4.834280	17.402024	0.303723	27.691861	-12.927460	0.000000	4.726156	-5.009921	5.097793	18.473977	0.322432	35.969071	-9.022680	0.000000	-0.519480	0.877644	-0.137036	-0.964727	1.167266	-0.145601	-0.853454	2.133903	-0.145601	-0.593714	2.133903	-0.119907	-0.482389	1.789691	-0.111342	-0.296831	1.359470	-0.102777	-3.710594	9.928079	-0.762154	0.000000	0.000000	13.509126	-6.386321	3.351808	-11.934172	-15.370385	10.688672	25.582951	68.041166	-8.121055	4.759119	-1.184639	-9.878376	41.036262	25.039173	69.332440	-12.437806	-5.585888
3.916667	5.230483	-6.377379	102.313299	0.259762	0.877533	0.787420	2.983164	6.833446	5.140037	17.356528	0.302929	27.458917	-12.531815	0.000000	4.972869	-5.293545	4.821032	19.094127	0.333255	36.052776	-9.541624	0.000000	-0.531608	0.945516	-0.048531	-0.987249	1.257537	-0.051565	-0.873378	2.298929	-0.051565	-0.607575	2.298929	-0.042465	-0.493651	1.928097	-0.039432	-0.303761	1.464605	-0.036399	-3.797222	10.695872	-0.269917	0.000000	0.000000	13.396106	-6.639810	4.136291	-12.704693	-15.943687	8.302092	24.731723	68.020228	-8.254410	4.899020	-1.613462	-9.844338	31.146706	30.083420	71.719804	-12.758236	-5.377308
3.933333	5.455020	-6.393555	101.751204	0.260013	0.877267	0.788350	3.040019	6.990507	5.380418	17.380817	0.303352	27.310672	-12.168214	0.000000	5.299515	-5.494212	4.577074	19.801465	0.345601	36.213965	-9.989246	0.000000	-0.545313	0.996231	0.035729	-1.012701	1.324987	0.037962	-0.895895	2.422235	0.037962	-0.623238	2.422235	0.031263	-0.506378	2.031514	0.029030	-0.311592	1.543161	0.026797	-3.895115	11.269562	0.198715	0.000000	0.000000	13.338372	-6.765227	4.703884	-13.269849	-16.498264	8.096605	23.711709	66.577542	-8.239457	4.712068	-2.132285	-9.823134	22.696005	35.163578	74.934703	-13.035713	-4.519327
3.950000	5.620861	-6.442678	101.255047	0.260264	0.876790	0.789527	3.157396	7.085313	5.560189	17.462976	0.304786	27.220965	-11.835005	0.000000	5.700599	-5.633227	4.349690	20.572685	0.359061	36.448121	-10.339111	0.000000	-0.558400	1.034226	0.113001	-1.037006	1.375520	0.120064	-0.917396	2.514616	0.120064	-0.638196	2.514616	0.098876	-0.518531	2.108993	0.091814	-0.319070	1.602015	0.084751	-3.988599	11.699367	0.628480	0.000000	0.000000	13.333010	-6.771403	5.125910	-13.654939	-17.050398	9.766709	22.579452	63.971505	-8.056369	4.275205	-2.663880	-9.781929	16.305752	40.110005	78.558913	-13.179961	-3.037639
3.966667	5.746070	-6.526490	100.825602	0.260467	0.876129	0.790915	3.333675	7.134630	5.682897	17.591648	0.307032	27.175288	-11.509436	0.000000	6.163094	-5.723184	4.168859	21.373626	0.373040	36.745249	-10.617717	0.000000	-0.569665	1.062971	0.179008	-1.057924	1.413751	0.190196	-0.935902	2.584507	0.190196	-0.651070	2.584507	0.156632	-0.528990	2.167610	0.145444	-0.325506	1.646542	0.134256	-4.069057	12.024537	0.995586	0.000000	0.000000	13.380317	-6.704174	5.452578	-13.874347	-17.602944	12.961837	21.378574	60.471796	-7.740656	3.597731	-3.140724	-9.715342	11.703264	44.757681	82.757591	-13.220403	-1.069733
3.983333	5.844432	-6.641481	100.455099	0.260600	0.875322	0.792451	3.559855	7.153826	5.764491	17.755677	0.309895	27.169308	-11.170287	0.000000	6.668852	-5.778812	4.022049	22.173405	0.386999	37.097538	-10.825241	0.000000	-0.578772	1.085659	0.235067	-1.074838	1.443927	0.249758	-0.950865	2.639672	0.249758	-0.661479	2.639672	0.205683	-0.537448	2.213877	0.190992	-0.330710	1.681686	0.176300	-4.134113	12.281197	1.307370	0.000000	0.000000	13.477601	-6.594259	5.721431	-13.952383	-18.146679	17.322690	20.144370	56.333656	-7.295809	2.672595	-3.493165	-9.640922	8.796398	48.943230	86.723083	-13.065201	1.084949
4.000000	5.925124	-6.782910	100.131934	0.260654	0.874426	0.794096	3.824928	7.151659	5.812051	17.937332	0.313065	27.216816	-10.782445	0.000000	7.196946	-5.808251	3.916349	22.937105	0.400328	37.477446	-10.981067	0.000000	-0.586308	1.104476	0.286117	-1.088833	1.468953	0.303999	-0.963246	2.685423	0.303999	-0.670092	2.685423	0.250352	-0.544446	2.252247	0.232470	-0.335016	1.710833	0.214588	-4.187940	12.494052	1.591297	0.000000	0.000000	13.622186	-6.485387	5.920869	-13.906187	-18.666052	22.515131	18.884822	51.777954	-6.712829	1.462941	-3.741989	-9.584178	5.905741	52.530086	89.959745	-12.518401	2.972927
4.016667	5.987355	-6.948354	99.840518	0.260654	0.873499	0.795804	4.120485	7.126513	5.834080	18.123821	0.316320	27.335705	-10.320748	0.000000	7.728368	-5.810820	3.848442	23.633016	0.412474	37.855336	-11.095979	0.000000	-0.593046	1.120381	0.335838	-1.101346	1.490107	0.356828	-0.974315	2.724095	0.356828	-0.677792	2.724095	0.293859	-0.550703	2.284682	0.272869	-0.338867	1.735471	0.251879	-4.236069	12.673979	1.867833	0.000000	0.000000	13.816880	-6.424804	6.052267	-13.737690	-19.146607	28.281736	17.591956	46.974759	-5.994891	-0.009387	-3.831820	-9.510196	3.708871	55.323372	91.709484	-11.579504	4.456062
4.033333	6.036947	-7.127698	99.560561	0.260621	0.872613	0.797530	4.433826	7.083919	5.833924	18.304007	0.319465	27.537149	-9.767951	0.000000	8.238554	-5.793565	3.810706	24.232469	0.422936	38.202358	-11.195987	0.000000	-0.599973	1.135283	0.389193	-1.114209	1.509926	0.413517	-0.985695	2.760327	0.413517	-0.685709	2.760327	0.340544	-0.557135	2.315069	0.316219	-0.342824	1.758553	0.291895	-4.285544	12.842547	2.164573	0.000000	0.000000	14.062235	-6.429690	6.137460	-13.448269	-19.579046	34.386307	16.247370	42.104282	-5.162149	-1.693758	-3.645602	-9.400543	2.938433	57.111594	92.214204	-10.584728	5.338498
4.050000	6.078042	-7.313329	99.285122	0.260561	0.871852	0.799248	4.754114	7.028131	5.821114	18.467908	0.322326	27.805929	-9.136617	0.000000	8.708744	-5.762522	3.803696	24.712880	0.431321	38.480672	-11.292103	0.000000	-0.607106	1.150851	0.446956	-1.127457	1.530632	0.474891	-0.997415	2.798179	0.474891	-0.693862	2.798179	0.391087	-0.563759	2.346815	0.363152	-0.346901	1.782668	0.335217	-4.336500	13.018656	2.485837	0.000000	0.000000	14.333254	-6.518194	6.207211	-13.031070	-19.965329	40.637096	14.848291	37.323024	-4.274869	-3.417303	-3.085458	-9.270471	4.048546	57.764226	91.380049	-9.908404	5.421380
